<?xml version="1.0" encoding="UTF-8"?>
<!DOCTYPE svg PUBLIC "-//W3C//DTD SVG 1.1//EN" "http://www.w3.org/Graphics/SVG/1.1/DTD/svg11.dtd">
<!-- Creator: CorelDRAW X8 -->
<svg xmlns="http://www.w3.org/2000/svg" xml:space="preserve" width="43.3492mm" height="43.3492mm" version="1.1" style="shape-rendering:geometricPrecision; text-rendering:geometricPrecision; image-rendering:optimizeQuality; fill-rule:evenodd; clip-rule:evenodd"
viewBox="0 0 4335 4335"
 xmlns:xlink="http://www.w3.org/1999/xlink">
 <defs>
  <style type="text/css">
   <![CDATA[
    .fil0 {fill:none}
    .fil1 {fill:#004D40}
    .fil11 {fill:#26C6DA}
    .fil6 {fill:#2E4C59}
    .fil12 {fill:#2ECC71}
    .fil8 {fill:#40495A}
    .fil7 {fill:#6D97A3}
    .fil14 {fill:#748191}
    .fil5 {fill:#74838B}
    .fil4 {fill:#99A0A6}
    .fil3 {fill:#AAE0EC}
    .fil2 {fill:#E9EDEE}
    .fil9 {fill:#EAE7E7}
    .fil10 {fill:#FECD02}
    .fil13 {fill:#FF6E40}
    .fil15 {fill:black;fill-rule:nonzero}
   ]]>
  </style>
   <clipPath id="id0">
    <path d="M454 590l3526 0 0 3265 -3526 0 0 -3265z"/>
   </clipPath>
 </defs>
 <g id="Capa_x0020_1">
  <metadata id="CorelCorpID_0Corel-Layer"/>
  <rect class="fil0" width="4335" height="4335"/>
  <g id="_3215947554208">
   <g>
    <path class="fil1" d="M676 951l0 1814c0,115 86,152 178,151l939 0c28,135 13,252 -44,374 -103,0 -318,-33 -318,101 0,58 12,137 83,137l1307 0c102,0 132,-234 -31,-238 -67,-2 -137,0 -204,0 -57,-122 -72,-239 -44,-374l933 0c92,0 184,-29 184,-151l0 -1814c0,-42 -17,-72 -36,-96 -17,-19 -49,-48 -78,-48l-2755 0c-42,0 -114,65 -114,144z"/>
    <path class="fil2" d="M746 2736c0,69 29,99 89,99l2665 0c57,0 87,-27 89,-91 2,-64 0,-132 0,-196 -941,-6 -1900,0 -2843,0l0 188z"/>
    <polygon class="fil3" points="2381,1470 1448,1467 1444,2176 2381,2176 "/>
    <path class="fil3" d="M1949 1392c84,0 454,-14 498,12 17,68 4,415 6,518l436 0 0 -708 -937 -2 -3 180z"/>
    <path class="fil4" d="M2461 3105l-587 0c-19,103 -40,154 -47,190l681 0c-9,-47 -27,-76 -47,-190z"/>
    <path class="fil5" d="M1874 3105l587 0c-6,-79 -3,-115 8,-191l-601 0c9,76 12,112 6,191z"/>
    <path class="fil2" d="M1505 3444c40,13 1286,13 1325,0 28,-93 -49,-72 -110,-72l-1105 0c-61,0 -138,-21 -110,72z"/>
    <path class="fil6" d="M2060 2730l215 0c66,0 72,-77 -6,-77l-203 0c-78,0 -72,77 -6,77z"/>
    <path class="fil7" d="M2381 1470l0 706 -937 0 4 -709 -7 38c0,14 1,29 1,43 0,127 -7,578 3,633 68,10 913,8 941,-3 7,-68 1,-489 1,-622 1,-34 5,-67 -6,-86z"/>
   </g>
   <g>
    <path class="fil8" d="M3583 1223l-2829 0 0 1214c0,53 4,78 60,99 50,18 360,10 441,10l2053 0c179,0 275,18 275,-106l0 -1217z"/>
    <path class="fil9" d="M754 1223l2829 0c0,-58 11,-257 -5,-295 -20,-48 -84,-56 -156,-55l-2256 0c-84,0 -167,0 -251,0 -72,-1 -137,7 -157,55 -15,38 -4,237 -4,295z"/>
    <polygon class="fil9" points="1581,1084 3342,1084 3343,1015 1581,1014 "/>
    <polygon class="fil10" points="1639,1640 2580,1640 2580,1571 2556,1570 2574,1570 1667,1570 1639,1570 "/>
    <polygon class="fil10" points="1405,2196 2285,2196 2286,2128 1405,2127 "/>
    <polygon class="fil11" points="2638,1501 3343,1501 3343,1432 2640,1431 "/>
    <polygon class="fil11" points="1875,1766 1876,1779 2459,1779 2463,1766 2462,1710 1875,1710 "/>
    <polygon class="fil12" points="1698,1917 2286,1918 2285,1849 1700,1849 "/>
    <polygon class="fil12" points="2697,1640 3228,1640 3226,1570 2696,1570 "/>
    <polygon class="fil13" points="2227,2335 2753,2335 2756,2266 2226,2266 "/>
    <polygon class="fil12" points="2521,2057 2544,2057 2968,2057 2991,2057 2991,1988 2521,1988 "/>
    <polygon class="fil13" points="1757,1501 2227,1501 2227,1432 1758,1431 "/>
    <polygon class="fil11" points="2403,2195 2872,2196 2873,2127 2404,2127 "/>
    <polygon class="fil12" points="1404,1766 1406,1779 1757,1779 1757,1766 1757,1710 1404,1710 "/>
    <polygon class="fil12" points="1757,2335 1780,2335 2110,2335 2110,2266 1757,2266 "/>
    <polygon class="fil13" points="2580,1766 2581,1779 2930,1779 2933,1766 2932,1710 2580,1710 "/>
    <polygon class="fil13" points="1404,2057 1755,2057 1757,1988 1774,1988 1404,1988 "/>
    <polygon class="fil13" points="2991,2196 3343,2196 3343,2127 2992,2127 "/>
    <polygon class="fil9" points="993,1083 1344,1084 1346,1014 994,1014 "/>
    <polygon class="fil11" points="2756,1916 3108,1918 3108,1850 2757,1849 "/>
    <polygon class="fil10" points="2168,2057 2406,2057 2403,1988 2168,1988 "/>
    <polygon class="fil11" points="1404,2335 1640,2335 1639,2266 1404,2266 "/>
    <polygon class="fil14" points="993,2057 1017,2057 1228,2057 1228,1988 993,1988 "/>
    <polygon class="fil14" points="993,1640 1017,1640 1228,1640 1228,1570 993,1571 "/>
    <polygon class="fil14" points="993,2335 1017,2335 1228,2335 1228,2266 993,2266 "/>
    <polygon class="fil10" points="2873,2335 2896,2335 3108,2335 3108,2266 2873,2266 "/>
    <polygon class="fil13" points="1404,1501 1637,1501 1639,1431 1404,1431 "/>
    <path class="fil14" d="M993 1918c43,1 203,3 235,-2l0 -66 -233 -1 -2 69z"/>
    <polygon class="fil14" points="993,2196 1227,2196 1228,2127 994,2127 "/>
    <polygon class="fil14" points="993,1501 1227,1501 1228,1431 994,1431 "/>
    <polygon class="fil13" points="2403,1917 2638,1918 2638,1849 2405,1849 "/>
    <polygon class="fil14" points="994,1779 1227,1779 1228,1711 993,1709 "/>
    <polygon class="fil11" points="1875,2057 2050,2057 2051,1988 1875,1988 "/>
    <polygon class="fil10" points="2345,1501 2520,1501 2521,1431 2347,1431 "/>
    <polygon class="fil10" points="1404,1918 1581,1918 1580,1850 1407,1848 "/>
    <polygon class="fil10" points="3108,2057 3226,2057 3226,1988 3108,1988 "/>
    <polygon class="fil11" points="1404,1640 1500,1640 1522,1639 1522,1572 1500,1570 1404,1570 "/>
   </g>
   <path class="fil15" d="M1006 961l37 0 66 172 -37 0 -14 -41 -67 0 -14 41 -36 0 65 -172zm41 101l-15 -43 -7 -20 -1 0 -7 20 -15 43 45 0zm82 -101l63 0c9,0 17,2 24,4 7,3 13,7 18,12 5,4 9,10 12,17 3,6 4,14 4,22 0,5 -1,11 -3,16 -2,5 -4,9 -8,13 -3,4 -7,8 -12,11 -4,3 -9,6 -14,7l0 2 46 66 0 2 -37 0 -45 -64 -15 0 0 64 -33 0 0 -172zm63 78c7,0 14,-2 18,-7 5,-4 7,-10 7,-17 0,-3 0,-6 -1,-9 -1,-3 -3,-5 -5,-7 -2,-3 -5,-5 -8,-6 -3,-1 -6,-2 -11,-2l-30 0 0 48 30 0zm124 94l0 -141 -48 0 0 -31 130 0 0 31 -49 0 0 141 -33 0zm138 -141l0 40 69 0 0 31 -69 0 0 39 77 0 0 31 -110 0 0 -172 110 0 0 31 -77 0zm204 -31l37 0 66 172 -36 0 -15 -41 -67 0 -14 41 -36 0 65 -172zm42 101l-16 -43 -6 -20 -2 0 -7 20 -15 43 46 0zm81 -101l33 0 0 141 73 0 0 31 -106 0 0 -172zm183 172l0 -172 61 0c9,0 16,2 23,4 8,3 14,7 19,11 6,5 10,11 13,18 3,6 5,14 5,22 0,8 -2,15 -5,22 -3,6 -7,12 -13,17 -5,5 -11,8 -19,11 -7,3 -14,4 -23,4l-28 0 0 63 -33 0zm62 -94c8,0 15,-2 19,-7 5,-5 7,-10 7,-16 0,-4 -1,-6 -2,-9 -1,-3 -2,-6 -5,-8 -2,-2 -5,-4 -8,-5 -3,-1 -7,-2 -11,-2l-29 0 0 47 29 0zm82 -78l63 0c9,0 17,2 24,4 7,3 13,7 18,12 5,4 9,10 12,17 3,6 4,14 4,22 0,5 -1,11 -3,16 -2,5 -4,9 -8,13 -3,4 -7,8 -12,11 -4,3 -9,6 -14,7l0 2 46 66 0 2 -37 0 -45 -64 -15 0 0 64 -33 0 0 -172zm63 78c7,0 14,-2 18,-7 5,-4 7,-10 7,-17 0,-3 0,-6 -1,-9 -1,-3 -3,-5 -5,-7 -2,-3 -5,-5 -8,-6 -3,-1 -7,-2 -11,-2l-30 0 0 48 30 0zm170 98c-13,0 -25,-2 -36,-7 -12,-5 -21,-11 -29,-19 -8,-8 -15,-18 -19,-29 -5,-11 -7,-22 -7,-35 0,-12 2,-24 7,-35 4,-11 11,-20 19,-28 8,-9 17,-15 29,-20 11,-4 23,-6 36,-6 13,0 25,2 36,6 11,5 20,11 28,20 9,8 15,17 19,28 5,11 7,23 7,35 0,13 -2,24 -7,35 -4,11 -10,21 -19,29 -8,8 -17,14 -28,19 -11,5 -23,7 -36,7zm0 -31c8,0 15,-1 22,-4 7,-3 14,-7 19,-12 5,-5 9,-11 12,-19 3,-7 5,-15 5,-24 0,-9 -2,-17 -5,-24 -3,-7 -7,-13 -12,-18 -5,-6 -12,-10 -19,-12 -7,-3 -14,-5 -22,-5 -8,0 -16,2 -23,5 -7,2 -13,6 -19,12 -5,5 -9,11 -12,18 -3,7 -4,15 -4,24 0,9 1,17 4,24 3,8 7,14 12,19 6,5 12,9 19,12 7,3 15,4 23,4zm197 -67l85 0c1,2 1,4 1,7 1,2 1,5 1,8 0,11 -2,21 -5,31 -4,10 -9,19 -16,26 -8,8 -17,15 -28,19 -11,5 -23,7 -37,7 -13,0 -25,-2 -36,-7 -11,-4 -21,-11 -29,-19 -8,-8 -15,-17 -20,-28 -5,-11 -7,-23 -7,-36 0,-13 2,-25 7,-36 5,-11 12,-20 20,-28 8,-8 18,-14 29,-19 11,-4 23,-6 36,-6 14,0 26,2 37,7 12,5 21,11 29,20l-23 21c-5,-5 -12,-10 -19,-13 -7,-3 -15,-5 -25,-5 -7,0 -15,2 -22,4 -7,3 -13,7 -19,12 -5,5 -9,12 -13,19 -3,7 -4,15 -4,24 0,9 1,17 4,25 4,7 8,13 13,18 6,5 12,9 19,12 7,3 15,4 23,4 9,0 17,-1 23,-4 7,-2 12,-6 17,-10 3,-3 6,-6 8,-11 2,-4 4,-9 6,-15l-55 0 0 -27zm114 -78l63 0c9,0 17,2 24,4 7,3 13,7 19,12 5,4 9,10 11,17 3,6 4,14 4,22 0,5 -1,11 -3,16 -1,5 -4,9 -8,13 -3,4 -7,8 -11,11 -5,3 -10,6 -15,7l0 2 47 66 0 2 -38 0 -45 -64 -15 0 0 64 -33 0 0 -172zm63 78c8,0 14,-2 18,-7 5,-4 8,-10 8,-17 0,-3 -1,-6 -2,-9 -1,-3 -3,-5 -5,-7 -2,-3 -4,-5 -8,-6 -3,-1 -6,-2 -10,-2l-31 0 0 48 30 0zm138 -78l38 0 65 172 -36 0 -15 -41 -67 0 -14 41 -36 0 65 -172zm42 101l-16 -43 -6 -20 -2 0 -6 20 -16 43 46 0zm81 -101l33 0 53 91 2 0 53 -91 32 0 0 172 -32 0 0 -85 2 -28 -2 0 -44 77 -20 0 -44 -77 -2 0 2 28 0 85 -33 0 0 -172zm259 0l37 0 66 172 -36 0 -15 -41 -67 0 -14 41 -36 0 65 -172zm42 101l-16 -43 -6 -20 -2 0 -6 20 -16 43 46 0zm81 -101l64 0c8,0 16,2 23,4 7,3 14,7 19,12 5,4 9,10 11,17 3,6 5,14 5,22 0,5 -1,11 -3,16 -2,5 -5,9 -8,13 -4,4 -8,8 -12,11 -5,3 -10,6 -15,7l0 2 47 66 0 2 -38 0 -45 -64 -15 0 0 64 -33 0 0 -172zm63 78c8,0 14,-2 19,-7 4,-4 7,-10 7,-17 0,-3 -1,-6 -2,-9 -1,-3 -2,-5 -5,-7 -2,-3 -4,-5 -7,-6 -4,-1 -7,-2 -11,-2l-31 0 0 48 30 0z"/>
  </g>
 </g>
</svg>
